# Blender v2.76 (sub 0) OBJ File: 'cruiser.blend'
# www.blender.org
mtllib cruiser.mtl
o Cube
v 0.940347 -0.655177 -1.690968
v 0.317657 -0.167487 2.933848
v 0.579915 0.467542 -1.498769
v 0.419930 0.238234 1.753551
v 0.940185 -0.655033 0.000000
v 0.940185 0.000000 -1.692909
v 0.305240 -0.033825 2.873207
v 0.579915 0.655033 -0.194139
v 0.940185 0.000000 0.000000
v 0.604554 -0.451083 -2.821508
v 0.476774 0.095813 -2.880919
v 0.315518 0.139035 -2.880919
v 2.032390 -0.824361 -2.487163
v 2.029526 -0.823799 -1.206422
v 2.029527 -0.328256 -2.487134
v 2.029526 -0.328256 -1.206422
v 1.677010 -0.546113 -3.342435
v 1.675025 -0.328256 -3.340291
v 0.881187 -0.737602 -1.468138
v 0.881187 -0.737602 0.050721
v 0.322662 -0.300181 2.682935
v 1.129565 -0.055777 0.035806
v 1.129564 -0.629938 0.035806
v 2.084413 -0.343506 -1.021667
v 2.084413 -0.777867 -1.021668
v 1.038254 -0.055777 -0.046643
v 1.038254 -0.629938 -0.046643
v 1.993103 -0.343506 -1.104116
v 1.993103 -0.777867 -1.104116
v 0.543353 -0.400838 -2.931748
v 0.438971 0.045913 -2.931050
v 0.543353 -0.401415 -2.562771
v 0.438971 0.045336 -2.562073
v -0.940347 -0.655177 -1.690968
v -0.317657 -0.167487 2.933848
v -0.579915 0.467542 -1.498769
v -0.419930 0.238234 1.753551
v -0.000000 -0.655177 -1.690968
v -0.940185 -0.655033 0.000000
v -0.940185 0.000000 -1.692909
v 0.000000 -0.167487 2.933848
v -0.305239 -0.033825 2.873207
v -0.000000 0.570570 -1.498770
v -0.579915 0.655033 -0.194139
v 0.000000 0.238234 1.753551
v 0.000000 -0.033825 2.873207
v -0.940185 0.000000 0.000000
v -0.000000 0.655033 -0.194140
v -0.000000 -0.451083 -2.821508
v -0.604554 -0.451083 -2.821508
v -0.476774 0.095813 -2.880919
v -0.315518 0.139035 -2.880919
v -0.000000 0.202196 -2.880919
v -0.000000 0.095813 -2.880919
v -2.032390 -0.824361 -2.487163
v -2.029526 -0.823799 -1.206422
v -2.029527 -0.328256 -2.487134
v -2.029526 -0.328256 -1.206421
v -1.677010 -0.546113 -3.342435
v -1.675026 -0.328256 -3.340291
v -0.000000 -0.737602 -1.468138
v -0.881187 -0.737602 -1.468138
v -0.881187 -0.737602 0.050721
v -0.322662 -0.300181 2.682935
v 0.000000 -0.300181 2.682935
v 0.000000 -0.737602 0.050720
v -1.129565 -0.055777 0.035806
v -1.129564 -0.629938 0.035806
v -2.084413 -0.343506 -1.021667
v -2.084413 -0.777867 -1.021667
v -1.038254 -0.055777 -0.046642
v -1.038254 -0.629938 -0.046643
v -1.993103 -0.343506 -1.104116
v -1.993103 -0.777867 -1.104116
v -0.000000 -0.400838 -2.931748
v -0.543353 -0.400838 -2.931748
v -0.438972 0.045913 -2.931050
v -0.000000 0.045913 -2.931050
v -0.000000 -0.401415 -2.562771
v -0.543353 -0.401415 -2.562771
v -0.438972 0.045336 -2.562073
v -0.000000 0.045336 -2.562073
vt 0.970920 0.287484
vt 0.970896 0.008695
vt 0.984510 0.000332
vt 0.984510 0.250746
vt 0.812372 0.801981
vt 0.491257 0.801980
vt 0.491257 0.732747
vt 0.812372 0.706370
vt 0.431686 0.247434
vt 0.491084 0.279442
vt 0.414682 0.475308
vt 0.388095 0.475308
vt 0.474761 0.681945
vt 0.490592 0.793465
vt 0.183020 0.678418
vt 0.006992 0.606989
vt 0.735417 0.486870
vt 0.713380 0.488917
vt 0.713380 0.539242
vt 0.735417 0.539242
vt 0.671348 0.435881
vt 0.855945 0.416972
vt 0.855945 0.486205
vt 0.671348 0.486205
vt 0.490592 0.575117
vt 0.000332 0.583724
vt 0.859980 0.410407
vt 0.859980 0.131618
vt 0.679948 0.000332
vt 0.680400 0.211488
vt 0.921031 0.985479
vt 0.843948 0.953472
vt 0.813036 0.738378
vt 0.921031 0.706370
vt 0.336076 0.247434
vt 0.336076 0.475308
vt 0.336076 0.032340
vt 0.431686 0.032340
vt 0.671348 0.487695
vt 0.671348 0.540067
vt 0.712716 0.540067
vt 0.712716 0.486870
vt 0.325319 0.872736
vt 0.307780 0.872736
vt 0.318193 0.820716
vt 0.325319 0.794130
vt 0.283131 0.872736
vt 0.283131 0.794130
vt 0.291396 0.800363
vt 0.291396 0.872736
vt 0.180377 0.272609
vt 0.335411 0.272609
vt 0.335411 0.086217
vt 0.235739 0.086217
vt 0.921696 0.756312
vt 0.999668 0.706370
vt 0.999668 0.915932
vt 0.965917 0.928224
vt 0.860645 0.141341
vt 0.942437 0.141345
vt 0.942437 0.352496
vt 0.860737 0.352496
vt 0.906519 0.000332
vt 0.942437 0.000686
vt 0.887832 0.524967
vt 0.887832 0.416972
vt 0.856609 0.421109
vt 0.856609 0.515771
vt 0.491084 0.000332
vt 0.670683 0.199235
vt 0.670683 0.410385
vt 0.058924 0.000332
vt 0.000332 0.141341
vt 0.612237 0.551044
vt 0.925229 0.705706
vt 0.925229 0.560425
vt 0.491257 0.652508
vt 0.491257 0.705706
vt 0.335411 0.309347
vt 0.190131 0.309347
vt 0.190131 0.559760
vt 0.335411 0.559760
vt 0.044460 0.568147
vt 0.484316 0.560425
vt 0.970232 0.251778
vt 0.970232 0.016876
vt 0.949949 0.016876
vt 0.949949 0.251778
vt 0.939923 0.382956
vt 0.868310 0.382956
vt 0.943102 0.268321
vt 0.943102 0.000332
vt 0.671348 0.241947
vt 0.828756 0.416307
vt 0.000332 0.794130
vt 0.094081 0.807245
vt 0.094081 0.983287
vt 0.023159 0.973366
vt 0.751136 0.558483
vt 0.751136 0.486870
vt 0.736082 0.486870
vt 0.736082 0.558483
vt 0.946177 0.470804
vt 0.946177 0.705706
vt 0.925893 0.705706
vt 0.925893 0.470804
vt 0.307115 0.794130
vt 0.307115 0.888792
vt 0.292061 0.888792
vt 0.292061 0.794130
vt 0.230563 0.800363
vt 0.230563 0.872736
vt 0.335411 0.068042
vt 0.245829 0.068042
vt 0.221647 0.884281
vt 0.211711 0.794130
vt 0.229899 0.802386
vt 0.229899 0.876041
vt 0.168401 0.883712
vt 0.094746 0.883712
vt 0.094746 0.811339
vt 0.168401 0.794130
vt 0.335411 0.128875
vt 0.245829 0.128875
vt 0.169066 0.802386
vt 0.169066 0.876041
vn 0.813100 -0.582200 0.000100
vn -0.000000 0.977900 0.209300
vn 0.630200 0.736700 -0.245200
vn 0.851900 0.489600 0.186200
vn 0.000000 0.413200 0.910700
vn -0.000000 0.971700 0.236100
vn 0.977400 0.031500 0.209200
vn -0.153000 -0.988200 0.000100
vn 0.841100 0.539900 -0.033800
vn 0.176400 0.950300 -0.256400
vn 0.088000 0.990800 -0.103300
vn 0.000000 -0.884000 0.467500
vn 0.000000 0.000000 -1.000000
vn 0.000000 0.708700 -0.705500
vn 0.000000 -0.984100 -0.177700
vn -0.419000 -0.138300 -0.897400
vn 1.000000 0.002900 0.001100
vn 0.923900 0.007400 -0.382700
vn -0.185800 -0.000000 0.982600
vn 0.288500 0.957500 0.000000
vn -0.214600 -0.963600 -0.159400
vn 0.278600 0.958100 -0.066700
vn -0.000000 -0.986500 0.163900
vn 0.000000 -1.000000 -0.000000
vn 0.000000 -0.937900 -0.346900
vn 0.854000 -0.452700 0.256400
vn -0.132700 -0.980200 0.146900
vn 0.958600 -0.000000 -0.284800
vn 0.283400 0.959000 -0.005000
vn 0.088100 -0.972500 0.215600
vn 0.742200 -0.000000 0.670200
vn -0.670200 -0.000000 0.742200
vn 0.069200 0.994700 -0.076600
vn 0.670200 -0.000000 -0.742200
vn 0.000000 -1.000000 -0.001600
vn 0.000000 -0.909900 -0.414700
vn 0.839300 0.165500 -0.517800
vn 0.000000 0.001600 -1.000000
vn 0.000000 1.000000 0.001600
vn -0.973800 -0.227500 -0.000400
vn -0.813100 -0.582200 0.000100
vn -0.630200 0.736700 -0.245200
vn -0.851900 0.489600 0.186200
vn -0.977400 0.031500 0.209200
vn 0.153000 -0.988200 0.000100
vn -0.841100 0.539900 -0.033800
vn -0.176400 0.950300 -0.256400
vn -0.088000 0.990800 -0.103300
vn 0.419000 -0.138300 -0.897400
vn -1.000000 0.002900 0.001100
vn -0.923900 0.007400 -0.382700
vn 0.185800 -0.000000 0.982600
vn -0.288500 0.957500 0.000000
vn 0.214600 -0.963600 -0.159400
vn -0.278600 0.958100 -0.066700
vn -0.854000 -0.452700 0.256400
vn 0.132700 -0.980200 0.146900
vn -0.958600 0.000000 -0.284800
vn -0.283400 0.959000 -0.005000
vn -0.088100 -0.972500 0.215600
vn -0.742200 -0.000000 0.670200
vn 0.670200 -0.000000 0.742200
vn -0.069200 0.994700 -0.076600
vn -0.670200 0.000000 -0.742200
vn -0.839300 0.165500 -0.517800
vn 0.973800 -0.227500 -0.000400
usemtl Material.002
s off
f 1/1/1 5/2/1 20/3/1 19/4/1
f 48/5/2 45/6/2 4/7/2 8/8/2
f 3/9/3 6/10/3 11/11/3 12/12/3
f 9/13/4 8/14/4 4/15/4 7/16/4
f 2/17/5 7/18/5 46/19/5 41/20/5
f 7/21/6 4/22/6 45/23/6 46/24/6
f 5/25/7 9/13/7 7/16/7 2/26/7
f 5/27/8 1/28/8 13/29/8 14/30/8
f 6/31/9 3/32/9 8/33/9 9/34/9
f 43/35/10 3/9/10 12/12/10 53/36/10
f 43/35/11 48/37/11 8/38/11 3/9/11
f 2/39/12 41/40/12 65/41/12 21/42/12
f 54/43/13 53/44/13 12/45/13 11/46/13
f 54/47/14 11/48/14 31/49/14 78/50/14
f 1/51/15 38/52/15 49/53/15 10/54/15
f 10/55/16 11/56/16 18/57/16 17/58/16
f 13/59/17 15/60/17 16/61/17 14/62/17
f 15/60/18 13/59/18 17/63/18 18/64/18
f 9/65/19 5/66/19 23/67/19 22/68/19
f 6/10/20 9/69/20 16/70/20 15/71/20
f 1/51/21 10/54/21 17/72/21 13/73/21
f 11/11/22 6/10/22 15/71/22 18/74/22
f 66/75/23 20/76/23 21/77/23 65/78/23
f 61/79/24 19/80/24 20/81/24 66/82/24
f 38/52/25 1/51/25 19/80/25 61/79/25
f 5/25/26 2/26/26 21/83/26 20/84/26
f 24/85/27 22/86/27 26/87/27 28/88/27
f 14/62/28 16/61/28 24/89/28 25/90/28
f 16/91/29 9/92/29 22/86/29 24/85/29
f 5/27/30 14/30/30 25/93/30 23/94/30
f 26/95/31 27/96/31 29/97/31 28/98/31
f 25/99/32 24/100/32 28/101/32 29/102/32
f 23/103/33 25/104/33 29/105/33 27/106/33
f 22/107/34 23/108/34 27/109/34 26/110/34
f 78/50/35 31/49/35 33/111/35 82/112/35
f 10/54/36 49/53/36 75/113/36 30/114/36
f 11/115/37 10/116/37 30/117/37 31/118/37
f 79/119/38 82/120/38 33/121/38 32/122/38
f 30/114/39 75/113/39 79/123/39 32/124/39
f 31/118/40 30/117/40 32/125/40 33/126/40
f 34/1/41 62/4/41 63/3/41 39/2/41
f 48/5/2 44/8/2 37/7/2 45/6/2
f 36/9/42 52/12/42 51/11/42 40/10/42
f 47/13/43 42/16/43 37/15/43 44/14/43
f 35/17/5 41/20/5 46/19/5 42/18/5
f 42/21/6 46/24/6 45/23/6 37/22/6
f 39/25/44 35/26/44 42/16/44 47/13/44
f 39/27/45 56/30/45 55/29/45 34/28/45
f 40/31/46 47/34/46 44/33/46 36/32/46
f 43/35/47 53/36/47 52/12/47 36/9/47
f 43/35/48 36/9/48 44/38/48 48/37/48
f 35/39/12 64/42/12 65/41/12 41/40/12
f 54/43/13 51/46/13 52/45/13 53/44/13
f 54/47/14 78/50/14 77/49/14 51/48/14
f 34/51/15 50/54/15 49/53/15 38/52/15
f 50/55/49 59/58/49 60/57/49 51/56/49
f 55/59/50 56/62/50 58/61/50 57/60/50
f 57/60/51 60/64/51 59/63/51 55/59/51
f 47/65/52 67/68/52 68/67/52 39/66/52
f 40/10/53 57/71/53 58/70/53 47/69/53
f 34/51/54 55/73/54 59/72/54 50/54/54
f 51/11/55 60/74/55 57/71/55 40/10/55
f 66/75/23 65/78/23 64/77/23 63/76/23
f 61/79/24 66/82/24 63/81/24 62/80/24
f 38/52/25 61/79/25 62/80/25 34/51/25
f 39/25/56 63/84/56 64/83/56 35/26/56
f 69/85/57 73/88/57 71/87/57 67/86/57
f 56/62/58 70/90/58 69/89/58 58/61/58
f 58/91/59 69/85/59 67/86/59 47/92/59
f 39/27/60 68/94/60 70/93/60 56/30/60
f 71/95/61 73/98/61 74/97/61 72/96/61
f 70/99/62 74/102/62 73/101/62 69/100/62
f 68/103/63 72/106/63 74/105/63 70/104/63
f 67/107/64 71/110/64 72/109/64 68/108/64
f 78/50/35 82/112/35 81/111/35 77/49/35
f 50/54/36 76/114/36 75/113/36 49/53/36
f 51/115/65 77/118/65 76/117/65 50/116/65
f 79/119/38 80/122/38 81/121/38 82/120/38
f 76/114/39 80/124/39 79/123/39 75/113/39
f 77/118/66 81/126/66 80/125/66 76/117/66
